<!DOCTYPE svg PUBLIC "-//W3C//DTD SVG 1.1//EN" "http://www.w3.org/Graphics/SVG/1.1/DTD/svg11.dtd">
<!-- Uploaded to: SVG Repo, www.svgrepo.com, Transformed by: SVG Repo Mixer Tools -->
<svg version="1.0" id="Layer_1" xmlns="http://www.w3.org/2000/svg" xmlns:xlink="http://www.w3.org/1999/xlink" width="800px" height="800px" viewBox="0 0 64 64" enable-background="new 0 0 64 64" xml:space="preserve" fill="#000000">
<g id="SVGRepo_bgCarrier" stroke-width="0"/>
<g id="SVGRepo_tracerCarrier" stroke-linecap="round" stroke-linejoin="round"/>
<g id="SVGRepo_iconCarrier"> <g> <polygon fill="#64748b" points="45,0.586 45,14 58.414,14 "/> <path fill="#64748b" d="M44,16c-0.553,0-1-0.447-1-1V0H7C4.789,0,3,1.789,3,4v56c0,2.211,1.789,4,4,4h48c2.211,0,4-1.789,4-4V16H44 z M14,18h16c0.553,0,1,0.447,1,1s-0.447,1-1,1H14c-0.553,0-1-0.447-1-1S13.447,18,14,18z M48,51H14c-0.553,0-1-0.447-1-1 s0.447-1,1-1h34c0.553,0,1,0.447,1,1S48.553,51,48,51z M48,45H14c-0.553,0-1-0.447-1-1s0.447-1,1-1h34c0.553,0,1,0.447,1,1 S48.553,45,48,45z M48,39H14c-0.553,0-1-0.447-1-1s0.447-1,1-1h34c0.553,0,1,0.447,1,1S48.553,39,48,39z M48,33H14 c-0.553,0-1-0.447-1-1s0.447-1,1-1h34c0.553,0,1,0.447,1,1S48.553,33,48,33z M48,27H14c-0.553,0-1-0.447-1-1s0.447-1,1-1h34 c0.553,0,1,0.447,1,1S48.553,27,48,27z"/> </g> </g>
</svg>